<?xml version="1.0" encoding="UTF-8"?>
<svg width="8px" height="13px" viewBox="0 0 8 13" version="1.1" xmlns="http://www.w3.org/2000/svg" xmlns:xlink="http://www.w3.org/1999/xlink">
    <!-- Generator: Sketch 51.3 (57544) - http://www.bohemiancoding.com/sketch -->
    <title>battery</title>
    <desc>Created with Sketch.</desc>
    <defs>
        <path d="M7,1 L6,1 L6,0 L2,0 L2,1 L1,1 C0.4,1 -1.13686838e-13,1.4 -1.13686838e-13,2 L-1.13686838e-13,12 C-1.13686838e-13,12.6 0.4,13 1,13 L7,13 C7.6,13 8,12.6 8,12 L8,2 C8,1.4 7.6,1 7,1 L7,1 Z" id="path-1"></path>
    </defs>
    <g id="Symbols" stroke="none" stroke-width="1" fill="none" fill-rule="evenodd">
        <g id="Material/Android/Status-bar-content" transform="translate(-60.000000, -5.000000)">
            <g id="battery" transform="translate(60.000000, 5.000000)">
                <mask id="mask-2" fill="white">
                    <use xlink:href="#path-1"></use>
                </mask>
                <g id="battery-mask"></g>
                <rect id="Rectangle-path" fill-opacity="0.9" fill="#FFFFFF" mask="url(#mask-2)" x="0" y="10" width="8" height="3"></rect>
                <rect id="Rectangle-path" fill-opacity="0.9" fill="#FFFFFF" mask="url(#mask-2)" x="0" y="7" width="8" height="3"></rect>
                <rect id="Rectangle-path" fill-opacity="0.3" fill="#FFFFFF" mask="url(#mask-2)" x="0" y="4" width="8" height="3"></rect>
                <rect id="Rectangle-path" fill-opacity="0.3" fill="#FFFFFF" mask="url(#mask-2)" x="0" y="1" width="8" height="3"></rect>
                <rect id="Rectangle-path" fill-opacity="0.3" fill="#FFFFFF" mask="url(#mask-2)" x="2" y="0" width="4" height="1"></rect>
            </g>
        </g>
    </g>
</svg>